<?xml version="1.0" standalone="no"?>
<!DOCTYPE svg PUBLIC "-//W3C//DTD SVG 1.1//EN" "http://www.w3.org/Graphics/SVG/1.1/DTD/svg11.dtd">
<svg t="1609735514617" class="icon" viewBox="0 0 1024 1024" version="1.1" xmlns="http://www.w3.org/2000/svg" p-id="4936" xmlns:xlink="http://www.w3.org/1999/xlink" width="128" height="128">
    <defs>
        <style type="text/css"></style>
    </defs>
    <path d="M854.109091 148.945455h-121.018182V111.709091c0-16.290909-13.963636-30.254545-30.254545-30.254546h-72.145455V53.527273c0-16.290909-13.963636-30.254545-30.254545-30.254546h-174.545455c-16.290909 0-30.254545 13.963636-30.254545 30.254546v25.6h-72.145455c-16.290909 0-30.254545 13.963636-30.254545 30.254545v37.236364H169.890909C153.6 148.945455 139.636364 162.909091 139.636364 179.2v788.945455c0 18.618182 13.963636 32.581818 30.254545 32.581818h684.218182c16.290909 0 30.254545-13.963636 30.254545-30.254546v-791.272727c0-16.290909-13.963636-30.254545-30.254545-30.254545z m-500.363636-6.981819h72.145454c16.290909 0 30.254545-13.963636 30.254546-30.254545V86.109091h114.036363v25.6c0 16.290909 13.963636 30.254545 30.254546 30.254545h72.145454v72.145455H353.745455V141.963636z m470.10909 795.927273H200.145455V211.781818h90.763636v37.236364c0 16.290909 13.963636 30.254545 30.254545 30.254545h379.345455c16.290909 0 30.254545-13.963636 30.254545-30.254545V211.781818h90.763637v726.109091z" p-id="4937"></path>
    <path d="M397.963636 351.418182h342.109091v62.836363H397.963636zM283.927273 381.672727l37.236363 39.563637 39.563637-39.563637-39.563637-37.236363zM397.963636 542.254545h342.109091V605.090909H397.963636zM283.927273 574.836364l37.236363 37.236363 39.563637-37.236363-39.563637-39.563637zM397.963636 735.418182h342.109091v62.836363H397.963636zM283.927273 768l37.236363 37.236364 39.563637-37.236364-39.563637-39.563636z" p-id="4938"></path></svg>